<mxfile host="app.diagrams.net" modified="2020-04-03T15:11:18.583Z" agent="5.0 (Windows NT 10.0; Win64; x64) AppleWebKit/537.36 (KHTML, like Gecko) Chrome/80.0.3987.163 Safari/537.36" etag="lyvA3RUxIqWgVKnn-fxG" version="12.9.5" type="github">
  <diagram id="C5RBs43oDa-KdzZeNtuy" name="Page-1">
    <mxGraphModel dx="1718" dy="970" grid="1" gridSize="10" guides="1" tooltips="1" connect="1" arrows="1" fold="1" page="1" pageScale="1" pageWidth="827" pageHeight="1169" math="0" shadow="0">
      <root>
        <mxCell id="WIyWlLk6GJQsqaUBKTNV-0" />
        <mxCell id="WIyWlLk6GJQsqaUBKTNV-1" parent="WIyWlLk6GJQsqaUBKTNV-0" />
        <mxCell id="-60NsE4o0A_aWf5wCk37-0" value="" style="shape=folder;fontStyle=1;spacingTop=10;tabWidth=64;tabHeight=16;tabPosition=left;html=1;labelPosition=center;verticalLabelPosition=top;align=center;verticalAlign=bottom;" vertex="1" parent="WIyWlLk6GJQsqaUBKTNV-1">
          <mxGeometry x="40" y="40" width="960" height="520" as="geometry" />
        </mxCell>
        <mxCell id="-60NsE4o0A_aWf5wCk37-1" value="" style="shape=folder;fontStyle=1;spacingTop=10;tabWidth=65;tabHeight=21;tabPosition=left;html=1;" vertex="1" parent="WIyWlLk6GJQsqaUBKTNV-1">
          <mxGeometry x="1030" y="30" width="720" height="1040" as="geometry" />
        </mxCell>
        <mxCell id="-60NsE4o0A_aWf5wCk37-2" value="" style="shape=folder;fontStyle=1;spacingTop=10;tabWidth=40;tabHeight=14;tabPosition=left;html=1;" vertex="1" parent="WIyWlLk6GJQsqaUBKTNV-1">
          <mxGeometry x="40" y="590" width="960" height="490" as="geometry" />
        </mxCell>
        <mxCell id="-60NsE4o0A_aWf5wCk37-3" value="Controller" style="text;html=1;strokeColor=none;fillColor=none;align=center;verticalAlign=middle;whiteSpace=wrap;rounded=0;" vertex="1" parent="WIyWlLk6GJQsqaUBKTNV-1">
          <mxGeometry x="42" y="43" width="60" height="10" as="geometry" />
        </mxCell>
        <mxCell id="-60NsE4o0A_aWf5wCk37-8" value="&lt;p style=&quot;margin: 0px ; margin-top: 4px ; text-align: center&quot;&gt;&lt;i&gt;&amp;lt;&amp;lt;Interface&amp;gt;&amp;gt;&lt;/i&gt;&lt;br&gt;&lt;b&gt;PlayerViewEventListener&lt;/b&gt;&lt;/p&gt;&lt;hr size=&quot;1&quot;&gt;&lt;p style=&quot;margin: 0px ; margin-left: 4px&quot;&gt;&lt;br&gt;&lt;/p&gt;&lt;hr size=&quot;1&quot;&gt;&lt;p style=&quot;margin: 0px ; margin-left: 4px&quot;&gt;+ onPlayerChoseBuild(EventSource source, Coord position) : void&lt;br style=&quot;padding: 0px ; margin: 0px&quot;&gt;+ onPlayerChoseMove(EventSource source, Coord position) : void&lt;br style=&quot;padding: 0px ; margin: 0px&quot;&gt;&lt;/p&gt;&lt;p style=&quot;margin: 0px ; margin-left: 4px&quot;&gt;+ onWorkerToMoveChosen(EventSource source, String workerID) : void&lt;/p&gt;&lt;p style=&quot;margin: 0px ; margin-left: 4px&quot;&gt;+ onNicknameChosen(EventSource source, String nickname) : void&lt;/p&gt;&lt;p style=&quot;margin: 0px ; margin-left: 4px&quot;&gt;+ onColorChosen(EventSource source, Color color) : void&lt;br&gt;&lt;/p&gt;&lt;p style=&quot;margin: 0px ; margin-left: 4px&quot;&gt;&lt;/p&gt;&amp;nbsp;+ onGodChosen(EventSource source, String god) : void&lt;br&gt;&amp;nbsp;+ onWorkerInitialized(EventSource source, Coord position) : void" style="verticalAlign=top;align=left;overflow=fill;fontSize=12;fontFamily=Helvetica;html=1;" vertex="1" parent="WIyWlLk6GJQsqaUBKTNV-1">
          <mxGeometry x="60" y="70" width="440" height="180" as="geometry" />
        </mxCell>
        <mxCell id="-60NsE4o0A_aWf5wCk37-13" style="endArrow=block;dashed=1;endFill=0;endSize=12;html=1;fontFamily=Helvetica;fontSize=11;fontColor=#000000;align=center;strokeColor=#000000;edgeStyle=orthogonalEdgeStyle;" edge="1" parent="WIyWlLk6GJQsqaUBKTNV-1" source="-60NsE4o0A_aWf5wCk37-9" target="-60NsE4o0A_aWf5wCk37-8">
          <mxGeometry relative="1" as="geometry">
            <Array as="points">
              <mxPoint x="765" y="330" />
              <mxPoint x="280" y="330" />
            </Array>
          </mxGeometry>
        </mxCell>
        <mxCell id="-60NsE4o0A_aWf5wCk37-19" style="endArrow=block;dashed=1;endFill=0;endSize=12;html=1;fontFamily=Helvetica;fontSize=11;fontColor=#000000;align=center;strokeColor=#000000;edgeStyle=orthogonalEdgeStyle;" edge="1" parent="WIyWlLk6GJQsqaUBKTNV-1" source="-60NsE4o0A_aWf5wCk37-9" target="-60NsE4o0A_aWf5wCk37-18">
          <mxGeometry relative="1" as="geometry">
            <Array as="points">
              <mxPoint x="770" y="340" />
              <mxPoint x="770" y="340" />
            </Array>
          </mxGeometry>
        </mxCell>
        <mxCell id="-60NsE4o0A_aWf5wCk37-18" value="&lt;p style=&quot;margin: 0px ; margin-top: 4px ; text-align: center&quot;&gt;&lt;i&gt;&amp;lt;&amp;lt;Interface&amp;gt;&amp;gt;&lt;/i&gt;&lt;br&gt;&lt;b&gt;ChallengerViewEventListener&lt;/b&gt;&lt;/p&gt;&lt;hr size=&quot;1&quot;&gt;&lt;p style=&quot;margin: 0px ; margin-left: 4px&quot;&gt;&lt;br&gt;&lt;/p&gt;&lt;hr size=&quot;1&quot;&gt;&lt;p style=&quot;margin: 0px ; margin-left: 4px&quot;&gt;+ onGodsChosen(EventSource source, List&amp;lt;String&amp;gt; gods) : void&lt;br&gt;&lt;/p&gt;&lt;p style=&quot;margin: 0px ; margin-left: 4px&quot;&gt;+ onStartPlayerChosen(EventSource source, String startPlayerNickname) : void&lt;br&gt;&lt;/p&gt;&lt;p style=&quot;margin: 0px ; margin-left: 4px&quot;&gt;+ onNumberOfPlayerChosen(EventSource source, int n) : void&lt;/p&gt;&lt;p style=&quot;margin: 0px ; margin-left: 4px&quot;&gt;&lt;/p&gt;" style="verticalAlign=top;align=left;overflow=fill;fontSize=12;fontFamily=Helvetica;html=1;" vertex="1" parent="WIyWlLk6GJQsqaUBKTNV-1">
          <mxGeometry x="540" y="70" width="450" height="120" as="geometry" />
        </mxCell>
        <mxCell id="-60NsE4o0A_aWf5wCk37-20" style="edgeStyle=orthogonalEdgeStyle;rounded=0;orthogonalLoop=1;jettySize=auto;html=1;" edge="1" parent="WIyWlLk6GJQsqaUBKTNV-1" source="-60NsE4o0A_aWf5wCk37-12" target="-60NsE4o0A_aWf5wCk37-14">
          <mxGeometry relative="1" as="geometry" />
        </mxCell>
        <mxCell id="-60NsE4o0A_aWf5wCk37-22" value="Has" style="text;html=1;align=center;verticalAlign=middle;resizable=0;points=[];labelBackgroundColor=#ffffff;" vertex="1" connectable="0" parent="-60NsE4o0A_aWf5wCk37-20">
          <mxGeometry x="-0.155" relative="1" as="geometry">
            <mxPoint as="offset" />
          </mxGeometry>
        </mxCell>
        <mxCell id="-60NsE4o0A_aWf5wCk37-23" value="Model" style="text;align=center;fontStyle=1;verticalAlign=middle;spacingLeft=3;spacingRight=3;strokeColor=none;rotatable=0;points=[[0,0.5],[1,0.5]];portConstraint=eastwest;" vertex="1" parent="WIyWlLk6GJQsqaUBKTNV-1">
          <mxGeometry x="1010" y="27" width="80" height="26" as="geometry" />
        </mxCell>
        <mxCell id="-60NsE4o0A_aWf5wCk37-9" value="RealController" style="swimlane;fontStyle=1;align=center;verticalAlign=top;childLayout=stackLayout;horizontal=1;startSize=26;horizontalStack=0;resizeParent=1;resizeParentMax=0;resizeLast=0;collapsible=1;marginBottom=0;" vertex="1" parent="WIyWlLk6GJQsqaUBKTNV-1">
          <mxGeometry x="660" y="380" width="210" height="60" as="geometry" />
        </mxCell>
        <mxCell id="-60NsE4o0A_aWf5wCk37-11" value="" style="line;strokeWidth=1;fillColor=none;align=left;verticalAlign=middle;spacingTop=-1;spacingLeft=3;spacingRight=3;rotatable=0;labelPosition=right;points=[];portConstraint=eastwest;" vertex="1" parent="-60NsE4o0A_aWf5wCk37-9">
          <mxGeometry y="26" width="210" height="8" as="geometry" />
        </mxCell>
        <mxCell id="-60NsE4o0A_aWf5wCk37-12" value="+ RealController(GameModel model)Â " style="text;strokeColor=none;fillColor=none;align=left;verticalAlign=top;spacingLeft=4;spacingRight=4;overflow=hidden;rotatable=0;points=[[0,0.5],[1,0.5]];portConstraint=eastwest;" vertex="1" parent="-60NsE4o0A_aWf5wCk37-9">
          <mxGeometry y="34" width="210" height="26" as="geometry" />
        </mxCell>
        <mxCell id="-60NsE4o0A_aWf5wCk37-14" value="Setup" style="swimlane;fontStyle=1;align=center;verticalAlign=top;childLayout=stackLayout;horizontal=1;startSize=26;horizontalStack=0;resizeParent=1;resizeParentMax=0;resizeLast=0;collapsible=1;marginBottom=0;" vertex="1" parent="WIyWlLk6GJQsqaUBKTNV-1">
          <mxGeometry x="150" y="352" width="300" height="150" as="geometry" />
        </mxCell>
        <mxCell id="-60NsE4o0A_aWf5wCk37-16" value="" style="line;strokeWidth=1;fillColor=none;align=left;verticalAlign=middle;spacingTop=-1;spacingLeft=3;spacingRight=3;rotatable=0;labelPosition=right;points=[];portConstraint=eastwest;" vertex="1" parent="-60NsE4o0A_aWf5wCk37-14">
          <mxGeometry y="26" width="300" height="8" as="geometry" />
        </mxCell>
        <mxCell id="-60NsE4o0A_aWf5wCk37-17" value="+ Setup(GameModel model)&#xa;+ setNumPlayer(int numPlayers) : void&#xa;+ addNewPlayer(Player p) : void&#xa;+ setPlayerColor(Player p, Color c) : void&#xa;+ setGods(List&lt;God&gt; gods) : void&#xa;+ setStartPlayer(Player p) : void&#xa;+ assignGodToPlayer(Player p, God g) : void&#xa;&#xa;" style="text;strokeColor=none;fillColor=none;align=left;verticalAlign=top;spacingLeft=4;spacingRight=4;overflow=hidden;rotatable=0;points=[[0,0.5],[1,0.5]];portConstraint=eastwest;" vertex="1" parent="-60NsE4o0A_aWf5wCk37-14">
          <mxGeometry y="34" width="300" height="116" as="geometry" />
        </mxCell>
        <mxCell id="-60NsE4o0A_aWf5wCk37-24" value="GameModel" style="swimlane;fontStyle=1;align=center;verticalAlign=top;childLayout=stackLayout;horizontal=1;startSize=26;horizontalStack=0;resizeParent=1;resizeParentMax=0;resizeLast=0;collapsible=1;marginBottom=0;" vertex="1" parent="WIyWlLk6GJQsqaUBKTNV-1">
          <mxGeometry x="1060" y="70" width="160" height="270" as="geometry" />
        </mxCell>
        <mxCell id="-60NsE4o0A_aWf5wCk37-25" value="- int numPlayers&#xa;- List&lt;Player&gt; queue" style="text;strokeColor=none;fillColor=none;align=left;verticalAlign=top;spacingLeft=4;spacingRight=4;overflow=hidden;rotatable=0;points=[[0,0.5],[1,0.5]];portConstraint=eastwest;" vertex="1" parent="-60NsE4o0A_aWf5wCk37-24">
          <mxGeometry y="26" width="160" height="44" as="geometry" />
        </mxCell>
        <mxCell id="-60NsE4o0A_aWf5wCk37-26" value="" style="line;strokeWidth=1;fillColor=none;align=left;verticalAlign=middle;spacingTop=-1;spacingLeft=3;spacingRight=3;rotatable=0;labelPosition=right;points=[];portConstraint=eastwest;" vertex="1" parent="-60NsE4o0A_aWf5wCk37-24">
          <mxGeometry y="70" width="160" height="8" as="geometry" />
        </mxCell>
        <mxCell id="-60NsE4o0A_aWf5wCk37-27" value="+ addNewPlayer&#xa;+ Getter/Setter&#xa;+ initializeWorker&#xa;+ assignGodToPlayer&#xa;+ setStartPlayer&#xa;+ allPlayersArrived&#xa;+ getPlayerByNickname&#xa;+ nextPlayer&#xa;+ getBoardView&#xa;+ getQueueState&#xa;+ requestPlayersNicknames&#xa;+ getAvailableColors" style="text;strokeColor=none;fillColor=none;align=left;verticalAlign=top;spacingLeft=4;spacingRight=4;overflow=hidden;rotatable=0;points=[[0,0.5],[1,0.5]];portConstraint=eastwest;" vertex="1" parent="-60NsE4o0A_aWf5wCk37-24">
          <mxGeometry y="78" width="160" height="192" as="geometry" />
        </mxCell>
      </root>
    </mxGraphModel>
  </diagram>
</mxfile>
